<svg xmlns="http://www.w3.org/2000/svg" viewBox="0 0 59.39 85.74"><title>Ridge-Security-Logo</title><g id="Layer_2" data-name="Layer 2"><g id="Layer_1-2" data-name="Layer 1"><path d="M10.55,75.32,7.89,71.51l-.5,0H4.44v3.79H2v-13H7.39a7.09,7.09,0,0,1,3,.56,4.26,4.26,0,0,1,1.93,1.6,4.52,4.52,0,0,1,.67,2.47,4.41,4.41,0,0,1-.72,2.54A4.25,4.25,0,0,1,10.16,71l3,4.28ZM9.68,65a3.72,3.72,0,0,0-2.41-.67H4.44v5.19H7.27a3.66,3.66,0,0,0,2.41-.68,2.37,2.37,0,0,0,.82-1.93A2.33,2.33,0,0,0,9.68,65Z"/><path d="M15.27,62.29h2.42v13H15.27Z"/><path d="M20.09,62.29h5.7a8.15,8.15,0,0,1,3.7.81A6,6,0,0,1,32,65.39a7,7,0,0,1,0,6.83,6,6,0,0,1-2.52,2.29,8.15,8.15,0,0,1-3.7.81h-5.7Zm5.59,11a5.63,5.63,0,0,0,2.52-.55,3.93,3.93,0,0,0,1.68-1.57,5.07,5.07,0,0,0,0-4.71,3.85,3.85,0,0,0-1.68-1.56,5.5,5.5,0,0,0-2.52-.55H22.51v8.94Z"/><path d="M43.63,68.66h2.29v5.19a7.07,7.07,0,0,1-2.34,1.23,8.94,8.94,0,0,1-2.76.43,7.43,7.43,0,0,1-3.6-.87,6.41,6.41,0,0,1-2.51-2.39,7,7,0,0,1,0-6.89A6.44,6.44,0,0,1,37.23,63a7.52,7.52,0,0,1,3.63-.87,7.94,7.94,0,0,1,3,.54,5.84,5.84,0,0,1,2.25,1.59l-1.53,1.48A4.89,4.89,0,0,0,41,64.23a5.12,5.12,0,0,0-2.45.57,4.29,4.29,0,0,0-1.68,1.62,4.71,4.71,0,0,0-.6,2.39,4.58,4.58,0,0,0,.6,2.34,4.27,4.27,0,0,0,1.68,1.64,4.86,4.86,0,0,0,2.43.6,5.2,5.2,0,0,0,2.68-.67Z"/><path d="M58.14,73.29v2H48.36v-13h9.52v2h-7.1v3.39h6.3v2h-6.3v3.59Z"/><path d="M7.59,85.54A2.93,2.93,0,0,1,6.5,85l.41-.92a3.11,3.11,0,0,0,1,.5,3.26,3.26,0,0,0,1.14.2,2,2,0,0,0,1.06-.23.67.67,0,0,0,.35-.6.58.58,0,0,0-.19-.45,1.42,1.42,0,0,0-.5-.28L8.91,83a10,10,0,0,1-1.18-.34A2,2,0,0,1,7,82.09a1.45,1.45,0,0,1-.33-1,1.72,1.72,0,0,1,.29-1,1.92,1.92,0,0,1,.87-.69,3.45,3.45,0,0,1,1.41-.26,4.48,4.48,0,0,1,1.15.15,3.37,3.37,0,0,1,1,.42l-.38.92a3.67,3.67,0,0,0-.87-.37,3.14,3.14,0,0,0-.89-.13,1.93,1.93,0,0,0-1,.23.73.73,0,0,0-.34.63.58.58,0,0,0,.19.45,1.26,1.26,0,0,0,.5.27,7.7,7.7,0,0,0,.82.23,8.6,8.6,0,0,1,1.17.34,2.11,2.11,0,0,1,.78.54,1.49,1.49,0,0,1,.32,1,1.64,1.64,0,0,1-.29,1,2,2,0,0,1-.87.68A3.54,3.54,0,0,1,9,85.74,5.13,5.13,0,0,1,7.59,85.54Z"/><path d="M17.82,84.66v1H13V79.27H17.7v1H14.23v1.66h3.08v1H14.23v1.76Z"/><path d="M20.08,85.32a3.05,3.05,0,0,1-1.22-1.17,3.21,3.21,0,0,1-.44-1.69,3.29,3.29,0,0,1,.44-1.68,3.15,3.15,0,0,1,1.23-1.17,3.76,3.76,0,0,1,3.17-.15,2.82,2.82,0,0,1,1.1.79l-.77.72a2.22,2.22,0,0,0-1.7-.75,2.43,2.43,0,0,0-1.18.29,2.14,2.14,0,0,0-.81.8,2.45,2.45,0,0,0,0,2.31,2.14,2.14,0,0,0,.81.8,2.43,2.43,0,0,0,1.18.29,2.23,2.23,0,0,0,1.7-.76l.77.73a3,3,0,0,1-1.1.79,3.68,3.68,0,0,1-1.43.27A3.62,3.62,0,0,1,20.08,85.32Z"/><path d="M25.91,85a2.85,2.85,0,0,1-.74-2.13v-3.6h1.18v3.56c0,1.25.54,1.88,1.63,1.88s1.61-.63,1.61-1.88V79.27h1.17v3.6A2.89,2.89,0,0,1,30,85a2.73,2.73,0,0,1-2.05.74A2.75,2.75,0,0,1,25.91,85Z"/><path d="M36.31,85.65,35,83.79H33.33v1.86H32.14V79.27h2.63a3.56,3.56,0,0,1,1.44.28,2.08,2.08,0,0,1,.94.78,2.38,2.38,0,0,1,0,2.45,2.05,2.05,0,0,1-1,.78l1.47,2.09Zm-.42-5.05a1.89,1.89,0,0,0-1.18-.32H33.33v2.54h1.38a1.82,1.82,0,0,0,1.18-.33,1.32,1.32,0,0,0,0-1.89Z"/><path d="M38.89,79.27h1.19v6.38H38.89Z"/><path d="M43.37,80.28H41.25v-1h5.42v1H44.55v5.37H43.37Z"/><path d="M50.77,83.4v2.25H49.58V83.42l-2.5-4.15h1.26l1.87,3.11,1.89-3.11h1.17Z"/><path d="M28.35,31.1H19.5V42.35H3.27V0H29.5A43,43,0,0,1,43,1.91a19.82,19.82,0,0,1,8.85,5.44A12.19,12.19,0,0,1,55,15.67a12,12,0,0,1-2.91,8A19.09,19.09,0,0,1,43.76,29L56.13,42.35H38.76Zm7.71-20q-2.55-1.63-7.54-1.63h-9v12.4h9q5,0,7.54-1.6a5.1,5.1,0,0,0,2.53-4.57A5.18,5.18,0,0,0,36.06,11.07Z"/><rect y="47.34" width="59.39" height="9.91"/></g></g></svg>
